<svg fill="none" height="90" stroke="none" viewBox="0 0 66 66" width="90" xmlns="http://www.w3.org/2000/svg"><path d="M16,0 h2 v2 h-2 Z M18,0 h2 v2 h-2 Z M20,0 h2 v2 h-2 Z M22,0 h2 v2 h-2 Z M26,0 h2 v2 h-2 Z M34,0 h2 v2 h-2 Z M36,0 h2 v2 h-2 Z M42,0 h2 v2 h-2 Z " fill="#000"></path><path d="M16,2 h2 v2 h-2 Z M22,2 h2 v2 h-2 Z M26,2 h2 v2 h-2 Z M32,2 h2 v2 h-2 Z " fill="#000"></path><path d="M18,4 h2 v2 h-2 Z M26,4 h2 v2 h-2 Z M28,4 h2 v2 h-2 Z M34,4 h2 v2 h-2 Z M38,4 h2 v2 h-2 Z M40,4 h2 v2 h-2 Z M42,4 h2 v2 h-2 Z M44,4 h2 v2 h-2 Z M46,4 h2 v2 h-2 Z M48,4 h2 v2 h-2 Z " fill="#000"></path><path d="M22,6 h2 v2 h-2 Z M24,6 h2 v2 h-2 Z M26,6 h2 v2 h-2 Z M28,6 h2 v2 h-2 Z M34,6 h2 v2 h-2 Z M36,6 h2 v2 h-2 Z M40,6 h2 v2 h-2 Z M42,6 h2 v2 h-2 Z M48,6 h2 v2 h-2 Z " fill="#000"></path><path d="M16,8 h2 v2 h-2 Z M22,8 h2 v2 h-2 Z M24,8 h2 v2 h-2 Z M28,8 h2 v2 h-2 Z M36,8 h2 v2 h-2 Z M44,8 h2 v2 h-2 Z " fill="#000"></path><path d="M16,10 h2 v2 h-2 Z M18,10 h2 v2 h-2 Z M20,10 h2 v2 h-2 Z M24,10 h2 v2 h-2 Z M26,10 h2 v2 h-2 Z M28,10 h2 v2 h-2 Z M40,10 h2 v2 h-2 Z M44,10 h2 v2 h-2 Z M48,10 h2 v2 h-2 Z " fill="#000"></path><path d="M16,12 h2 v2 h-2 Z M20,12 h2 v2 h-2 Z M24,12 h2 v2 h-2 Z M28,12 h2 v2 h-2 Z M32,12 h2 v2 h-2 Z M36,12 h2 v2 h-2 Z M40,12 h2 v2 h-2 Z M44,12 h2 v2 h-2 Z M48,12 h2 v2 h-2 Z " fill="#000"></path><path d="M16,14 h2 v2 h-2 Z M18,14 h2 v2 h-2 Z M28,14 h2 v2 h-2 Z M32,14 h2 v2 h-2 Z M36,14 h2 v2 h-2 Z M40,14 h2 v2 h-2 Z M44,14 h2 v2 h-2 Z " fill="#000"></path><path d="M0,16 h2 v2 h-2 Z M2,16 h2 v2 h-2 Z M4,16 h2 v2 h-2 Z M10,16 h2 v2 h-2 Z M12,16 h2 v2 h-2 Z M16,16 h2 v2 h-2 Z M18,16 h2 v2 h-2 Z M22,16 h2 v2 h-2 Z M24,16 h2 v2 h-2 Z M30,16 h2 v2 h-2 Z M32,16 h2 v2 h-2 Z M40,16 h2 v2 h-2 Z M46,16 h2 v2 h-2 Z M48,16 h2 v2 h-2 Z M50,16 h2 v2 h-2 Z M52,16 h2 v2 h-2 Z M54,16 h2 v2 h-2 Z M56,16 h2 v2 h-2 Z M62,16 h2 v2 h-2 Z M64,16 h2 v2 h-2 Z " fill="#000"></path><path d="M4,18 h2 v2 h-2 Z M6,18 h2 v2 h-2 Z M14,18 h2 v2 h-2 Z M24,18 h2 v2 h-2 Z M28,18 h2 v2 h-2 Z M30,18 h2 v2 h-2 Z M32,18 h2 v2 h-2 Z M38,18 h2 v2 h-2 Z M40,18 h2 v2 h-2 Z M46,18 h2 v2 h-2 Z M48,18 h2 v2 h-2 Z M50,18 h2 v2 h-2 Z M52,18 h2 v2 h-2 Z M54,18 h2 v2 h-2 Z M62,18 h2 v2 h-2 Z M64,18 h2 v2 h-2 Z " fill="#000"></path><path d="M2,20 h2 v2 h-2 Z M6,20 h2 v2 h-2 Z M10,20 h2 v2 h-2 Z M12,20 h2 v2 h-2 Z M14,20 h2 v2 h-2 Z M18,20 h2 v2 h-2 Z M20,20 h2 v2 h-2 Z M24,20 h2 v2 h-2 Z M26,20 h2 v2 h-2 Z M30,20 h2 v2 h-2 Z M38,20 h2 v2 h-2 Z M42,20 h2 v2 h-2 Z M46,20 h2 v2 h-2 Z M50,20 h2 v2 h-2 Z M54,20 h2 v2 h-2 Z M64,20 h2 v2 h-2 Z " fill="#000"></path><path d="M2,22 h2 v2 h-2 Z M4,22 h2 v2 h-2 Z M8,22 h2 v2 h-2 Z M14,22 h2 v2 h-2 Z M20,22 h2 v2 h-2 Z M22,22 h2 v2 h-2 Z M24,22 h2 v2 h-2 Z M28,22 h2 v2 h-2 Z M36,22 h2 v2 h-2 Z M46,22 h2 v2 h-2 Z M48,22 h2 v2 h-2 Z M50,22 h2 v2 h-2 Z M54,22 h2 v2 h-2 Z M56,22 h2 v2 h-2 Z " fill="#000"></path><path d="M4,24 h2 v2 h-2 Z M8,24 h2 v2 h-2 Z M12,24 h2 v2 h-2 Z M18,24 h2 v2 h-2 Z M20,24 h2 v2 h-2 Z M30,24 h2 v2 h-2 Z M32,24 h2 v2 h-2 Z M38,24 h2 v2 h-2 Z M40,24 h2 v2 h-2 Z M48,24 h2 v2 h-2 Z M52,24 h2 v2 h-2 Z M54,24 h2 v2 h-2 Z M62,24 h2 v2 h-2 Z M64,24 h2 v2 h-2 Z " fill="#000"></path><path d="M4,26 h2 v2 h-2 Z M8,26 h2 v2 h-2 Z M10,26 h2 v2 h-2 Z M16,26 h2 v2 h-2 Z M18,26 h2 v2 h-2 Z M20,26 h2 v2 h-2 Z M28,26 h2 v2 h-2 Z M30,26 h2 v2 h-2 Z M32,26 h2 v2 h-2 Z M34,26 h2 v2 h-2 Z M38,26 h2 v2 h-2 Z M40,26 h2 v2 h-2 Z M42,26 h2 v2 h-2 Z M46,26 h2 v2 h-2 Z M52,26 h2 v2 h-2 Z M60,26 h2 v2 h-2 Z M62,26 h2 v2 h-2 Z M64,26 h2 v2 h-2 Z " fill="#000"></path><path d="M2,28 h2 v2 h-2 Z M4,28 h2 v2 h-2 Z M8,28 h2 v2 h-2 Z M10,28 h2 v2 h-2 Z M12,28 h2 v2 h-2 Z M14,28 h2 v2 h-2 Z M18,28 h2 v2 h-2 Z M20,28 h2 v2 h-2 Z M22,28 h2 v2 h-2 Z M26,28 h2 v2 h-2 Z M28,28 h2 v2 h-2 Z M30,28 h2 v2 h-2 Z M32,28 h2 v2 h-2 Z M38,28 h2 v2 h-2 Z M46,28 h2 v2 h-2 Z M50,28 h2 v2 h-2 Z M52,28 h2 v2 h-2 Z M56,28 h2 v2 h-2 Z M58,28 h2 v2 h-2 Z M64,28 h2 v2 h-2 Z " fill="#000"></path><path d="M4,30 h2 v2 h-2 Z M8,30 h2 v2 h-2 Z M10,30 h2 v2 h-2 Z M14,30 h2 v2 h-2 Z M16,30 h2 v2 h-2 Z M20,30 h2 v2 h-2 Z M30,30 h2 v2 h-2 Z M32,30 h2 v2 h-2 Z M38,30 h2 v2 h-2 Z M44,30 h2 v2 h-2 Z M48,30 h2 v2 h-2 Z M50,30 h2 v2 h-2 Z M56,30 h2 v2 h-2 Z " fill="#000"></path><path d="M6,32 h2 v2 h-2 Z M10,32 h2 v2 h-2 Z M12,32 h2 v2 h-2 Z M20,32 h2 v2 h-2 Z M22,32 h2 v2 h-2 Z M24,32 h2 v2 h-2 Z M28,32 h2 v2 h-2 Z M30,32 h2 v2 h-2 Z M32,32 h2 v2 h-2 Z M36,32 h2 v2 h-2 Z M38,32 h2 v2 h-2 Z M40,32 h2 v2 h-2 Z M46,32 h2 v2 h-2 Z M52,32 h2 v2 h-2 Z M58,32 h2 v2 h-2 Z M64,32 h2 v2 h-2 Z " fill="#000"></path><path d="M2,34 h2 v2 h-2 Z M6,34 h2 v2 h-2 Z M10,34 h2 v2 h-2 Z M16,34 h2 v2 h-2 Z M18,34 h2 v2 h-2 Z M20,34 h2 v2 h-2 Z M24,34 h2 v2 h-2 Z M26,34 h2 v2 h-2 Z M28,34 h2 v2 h-2 Z M30,34 h2 v2 h-2 Z M34,34 h2 v2 h-2 Z M36,34 h2 v2 h-2 Z M38,34 h2 v2 h-2 Z M40,34 h2 v2 h-2 Z M44,34 h2 v2 h-2 Z M46,34 h2 v2 h-2 Z M48,34 h2 v2 h-2 Z M52,34 h2 v2 h-2 Z M54,34 h2 v2 h-2 Z M58,34 h2 v2 h-2 Z M60,34 h2 v2 h-2 Z M62,34 h2 v2 h-2 Z M64,34 h2 v2 h-2 Z " fill="#000"></path><path d="M0,36 h2 v2 h-2 Z M6,36 h2 v2 h-2 Z M10,36 h2 v2 h-2 Z M12,36 h2 v2 h-2 Z M14,36 h2 v2 h-2 Z M24,36 h2 v2 h-2 Z M26,36 h2 v2 h-2 Z M30,36 h2 v2 h-2 Z M32,36 h2 v2 h-2 Z M34,36 h2 v2 h-2 Z M38,36 h2 v2 h-2 Z M46,36 h2 v2 h-2 Z M48,36 h2 v2 h-2 Z M54,36 h2 v2 h-2 Z M56,36 h2 v2 h-2 Z M64,36 h2 v2 h-2 Z " fill="#000"></path><path d="M2,38 h2 v2 h-2 Z M4,38 h2 v2 h-2 Z M6,38 h2 v2 h-2 Z M8,38 h2 v2 h-2 Z M14,38 h2 v2 h-2 Z M20,38 h2 v2 h-2 Z M22,38 h2 v2 h-2 Z M24,38 h2 v2 h-2 Z M28,38 h2 v2 h-2 Z M36,38 h2 v2 h-2 Z M38,38 h2 v2 h-2 Z M40,38 h2 v2 h-2 Z M44,38 h2 v2 h-2 Z M46,38 h2 v2 h-2 Z M52,38 h2 v2 h-2 Z M54,38 h2 v2 h-2 Z " fill="#000"></path><path d="M0,40 h2 v2 h-2 Z M4,40 h2 v2 h-2 Z M6,40 h2 v2 h-2 Z M8,40 h2 v2 h-2 Z M12,40 h2 v2 h-2 Z M14,40 h2 v2 h-2 Z M24,40 h2 v2 h-2 Z M30,40 h2 v2 h-2 Z M46,40 h2 v2 h-2 Z M52,40 h2 v2 h-2 Z M58,40 h2 v2 h-2 Z M64,40 h2 v2 h-2 Z " fill="#000"></path><path d="M2,42 h2 v2 h-2 Z M6,42 h2 v2 h-2 Z M8,42 h2 v2 h-2 Z M14,42 h2 v2 h-2 Z M16,42 h2 v2 h-2 Z M18,42 h2 v2 h-2 Z M20,42 h2 v2 h-2 Z M30,42 h2 v2 h-2 Z M32,42 h2 v2 h-2 Z M38,42 h2 v2 h-2 Z M42,42 h2 v2 h-2 Z M46,42 h2 v2 h-2 Z M48,42 h2 v2 h-2 Z M52,42 h2 v2 h-2 Z M54,42 h2 v2 h-2 Z M58,42 h2 v2 h-2 Z M60,42 h2 v2 h-2 Z M62,42 h2 v2 h-2 Z M64,42 h2 v2 h-2 Z " fill="#000"></path><path d="M0,44 h2 v2 h-2 Z M2,44 h2 v2 h-2 Z M12,44 h2 v2 h-2 Z M14,44 h2 v2 h-2 Z M18,44 h2 v2 h-2 Z M20,44 h2 v2 h-2 Z M22,44 h2 v2 h-2 Z M24,44 h2 v2 h-2 Z M30,44 h2 v2 h-2 Z M34,44 h2 v2 h-2 Z M38,44 h2 v2 h-2 Z M46,44 h2 v2 h-2 Z M48,44 h2 v2 h-2 Z M52,44 h2 v2 h-2 Z M54,44 h2 v2 h-2 Z M56,44 h2 v2 h-2 Z M64,44 h2 v2 h-2 Z " fill="#000"></path><path d="M10,46 h2 v2 h-2 Z M18,46 h2 v2 h-2 Z M22,46 h2 v2 h-2 Z M30,46 h2 v2 h-2 Z M32,46 h2 v2 h-2 Z M38,46 h2 v2 h-2 Z M40,46 h2 v2 h-2 Z M46,46 h2 v2 h-2 Z M48,46 h2 v2 h-2 Z M54,46 h2 v2 h-2 Z M56,46 h2 v2 h-2 Z M58,46 h2 v2 h-2 Z " fill="#000"></path><path d="M0,48 h2 v2 h-2 Z M2,48 h2 v2 h-2 Z M4,48 h2 v2 h-2 Z M12,48 h2 v2 h-2 Z M14,48 h2 v2 h-2 Z M16,48 h2 v2 h-2 Z M22,48 h2 v2 h-2 Z M32,48 h2 v2 h-2 Z M40,48 h2 v2 h-2 Z M48,48 h2 v2 h-2 Z M50,48 h2 v2 h-2 Z M52,48 h2 v2 h-2 Z M54,48 h2 v2 h-2 Z M56,48 h2 v2 h-2 Z M62,48 h2 v2 h-2 Z " fill="#000"></path><path d="M16,50 h2 v2 h-2 Z M20,50 h2 v2 h-2 Z M22,50 h2 v2 h-2 Z M24,50 h2 v2 h-2 Z M26,50 h2 v2 h-2 Z M30,50 h2 v2 h-2 Z M32,50 h2 v2 h-2 Z M38,50 h2 v2 h-2 Z M42,50 h2 v2 h-2 Z M48,50 h2 v2 h-2 Z M56,50 h2 v2 h-2 Z M64,50 h2 v2 h-2 Z " fill="#000"></path><path d="M18,52 h2 v2 h-2 Z M20,52 h2 v2 h-2 Z M22,52 h2 v2 h-2 Z M30,52 h2 v2 h-2 Z M32,52 h2 v2 h-2 Z M34,52 h2 v2 h-2 Z M38,52 h2 v2 h-2 Z M40,52 h2 v2 h-2 Z M42,52 h2 v2 h-2 Z M48,52 h2 v2 h-2 Z M52,52 h2 v2 h-2 Z M56,52 h2 v2 h-2 Z M58,52 h2 v2 h-2 Z M64,52 h2 v2 h-2 Z " fill="#000"></path><path d="M16,54 h2 v2 h-2 Z M18,54 h2 v2 h-2 Z M24,54 h2 v2 h-2 Z M28,54 h2 v2 h-2 Z M32,54 h2 v2 h-2 Z M36,54 h2 v2 h-2 Z M40,54 h2 v2 h-2 Z M48,54 h2 v2 h-2 Z M56,54 h2 v2 h-2 Z M58,54 h2 v2 h-2 Z M64,54 h2 v2 h-2 Z " fill="#000"></path><path d="M22,56 h2 v2 h-2 Z M24,56 h2 v2 h-2 Z M30,56 h2 v2 h-2 Z M38,56 h2 v2 h-2 Z M40,56 h2 v2 h-2 Z M46,56 h2 v2 h-2 Z M48,56 h2 v2 h-2 Z M50,56 h2 v2 h-2 Z M52,56 h2 v2 h-2 Z M54,56 h2 v2 h-2 Z M56,56 h2 v2 h-2 Z M58,56 h2 v2 h-2 Z M64,56 h2 v2 h-2 Z " fill="#000"></path><path d="M18,58 h2 v2 h-2 Z M20,58 h2 v2 h-2 Z M22,58 h2 v2 h-2 Z M24,58 h2 v2 h-2 Z M26,58 h2 v2 h-2 Z M30,58 h2 v2 h-2 Z M32,58 h2 v2 h-2 Z M36,58 h2 v2 h-2 Z M38,58 h2 v2 h-2 Z M40,58 h2 v2 h-2 Z M42,58 h2 v2 h-2 Z M50,58 h2 v2 h-2 Z M56,58 h2 v2 h-2 Z M58,58 h2 v2 h-2 Z " fill="#000"></path><path d="M16,60 h2 v2 h-2 Z M20,60 h2 v2 h-2 Z M22,60 h2 v2 h-2 Z M24,60 h2 v2 h-2 Z M30,60 h2 v2 h-2 Z M36,60 h2 v2 h-2 Z M38,60 h2 v2 h-2 Z M46,60 h2 v2 h-2 Z M50,60 h2 v2 h-2 Z M56,60 h2 v2 h-2 Z M60,60 h2 v2 h-2 Z M64,60 h2 v2 h-2 Z " fill="#000"></path><path d="M16,62 h2 v2 h-2 Z M24,62 h2 v2 h-2 Z M28,62 h2 v2 h-2 Z M30,62 h2 v2 h-2 Z M36,62 h2 v2 h-2 Z M44,62 h2 v2 h-2 Z M46,62 h2 v2 h-2 Z M48,62 h2 v2 h-2 Z M50,62 h2 v2 h-2 Z M54,62 h2 v2 h-2 Z M58,62 h2 v2 h-2 Z " fill="#000"></path><path d="M16,64 h2 v2 h-2 Z M18,64 h2 v2 h-2 Z M20,64 h2 v2 h-2 Z M22,64 h2 v2 h-2 Z M32,64 h2 v2 h-2 Z M38,64 h2 v2 h-2 Z M40,64 h2 v2 h-2 Z M48,64 h2 v2 h-2 Z M52,64 h2 v2 h-2 Z M54,64 h2 v2 h-2 Z M56,64 h2 v2 h-2 Z M58,64 h2 v2 h-2 Z M64,64 h2 v2 h-2 Z " fill="#000"></path><path d="M15.3671 0.00195312H7.96623C4.35937 0.00195312 1.30363 2.38499 0.326667 5.64209C0.225633 5.97902 0.146767 6.32529 0.0919333 6.67925C0.0315 7.06985 0 7.46979 0 7.87695V15.4535C0 19.798 3.57467 23.3309 7.96623 23.3309L11.6667 23.3316L15.3671 23.3306C19.7584 23.3306 23.3333 19.7977 23.3333 15.4533V7.87695C23.3333 3.53462 19.7587 0.00195312 15.3671 0.00195312ZM19.8333 15.4535C19.8333 17.8671 17.8299 19.8309 15.3662 19.8309L11.6667 19.8316L7.96717 19.8306C5.5034 19.8306 3.5 17.8669 3.5 15.4535V7.87695C3.5 7.12305 3.69553 6.41325 4.0397 5.79305C4.37103 5.19642 4.8398 4.68332 5.40423 4.29482C6.1299 3.79525 7.01353 3.50195 7.966 3.50195H15.3671C17.8299 3.50195 19.8333 5.46452 19.8333 7.87695V15.4535Z" fill="#000" transform="scale(0.5833333333333334) translate(0, 0)"></path><path d="M3.40838 10.6641C1.89937 10.6641 0.671875 9.46086 0.671875 7.98326V3.34346C0.671875 2.88186 0.791875 2.44746 1.00197 2.06736C1.20487 1.70156 1.49208 1.38716 1.83798 1.14996C2.28228 0.844163 2.82388 0.664062 3.40688 0.664062H7.93958C9.44718 0.664062 10.6747 1.86586 10.6747 3.34336V7.98316C10.6747 9.46066 9.44728 10.664 7.93958 10.664H5.67327L3.40838 10.6641Z" fill="#000" transform="scale(0.5833333333333334) translate(5.833333333333334, 5.833333333333334)"></path><path d="M15.3671 0.00195312H7.96623C4.35937 0.00195312 1.30363 2.38499 0.326667 5.64209C0.225633 5.97902 0.146767 6.32529 0.0919333 6.67925C0.0315 7.06985 0 7.46979 0 7.87695V15.4535C0 19.798 3.57467 23.3309 7.96623 23.3309L11.6667 23.3316L15.3671 23.3306C19.7584 23.3306 23.3333 19.7977 23.3333 15.4533V7.87695C23.3333 3.53462 19.7587 0.00195312 15.3671 0.00195312ZM19.8333 15.4535C19.8333 17.8671 17.8299 19.8309 15.3662 19.8309L11.6667 19.8316L7.96717 19.8306C5.5034 19.8306 3.5 17.8669 3.5 15.4535V7.87695C3.5 7.12305 3.69553 6.41325 4.0397 5.79305C4.37103 5.19642 4.8398 4.68332 5.40423 4.29482C6.1299 3.79525 7.01353 3.50195 7.966 3.50195H15.3671C17.8299 3.50195 19.8333 5.46452 19.8333 7.87695V15.4535Z" fill="#000" transform="scale(0.5833333333333334) translate(89.14285714285714, 0)"></path><path d="M3.40838 10.6641C1.89937 10.6641 0.671875 9.46086 0.671875 7.98326V3.34346C0.671875 2.88186 0.791875 2.44746 1.00197 2.06736C1.20487 1.70156 1.49208 1.38716 1.83798 1.14996C2.28228 0.844163 2.82388 0.664062 3.40688 0.664062H7.93958C9.44718 0.664062 10.6747 1.86586 10.6747 3.34336V7.98316C10.6747 9.46066 9.44728 10.664 7.93958 10.664H5.67327L3.40838 10.6641Z" fill="#000" transform="scale(0.5833333333333334) translate(94.97619047619047, 5.833333333333334)"></path><path d="M15.3671 0.00195312H7.96623C4.35937 0.00195312 1.30363 2.38499 0.326667 5.64209C0.225633 5.97902 0.146767 6.32529 0.0919333 6.67925C0.0315 7.06985 0 7.46979 0 7.87695V15.4535C0 19.798 3.57467 23.3309 7.96623 23.3309L11.6667 23.3316L15.3671 23.3306C19.7584 23.3306 23.3333 19.7977 23.3333 15.4533V7.87695C23.3333 3.53462 19.7587 0.00195312 15.3671 0.00195312ZM19.8333 15.4535C19.8333 17.8671 17.8299 19.8309 15.3662 19.8309L11.6667 19.8316L7.96717 19.8306C5.5034 19.8306 3.5 17.8669 3.5 15.4535V7.87695C3.5 7.12305 3.69553 6.41325 4.0397 5.79305C4.37103 5.19642 4.8398 4.68332 5.40423 4.29482C6.1299 3.79525 7.01353 3.50195 7.966 3.50195H15.3671C17.8299 3.50195 19.8333 5.46452 19.8333 7.87695V15.4535Z" fill="#000" transform="scale(0.5833333333333334) translate(0, 89.14285714285714)"></path><path d="M3.40838 10.6641C1.89937 10.6641 0.671875 9.46086 0.671875 7.98326V3.34346C0.671875 2.88186 0.791875 2.44746 1.00197 2.06736C1.20487 1.70156 1.49208 1.38716 1.83798 1.14996C2.28228 0.844163 2.82388 0.664062 3.40688 0.664062H7.93958C9.44718 0.664062 10.6747 1.86586 10.6747 3.34336V7.98316C10.6747 9.46066 9.44728 10.664 7.93958 10.664H5.67327L3.40838 10.6641Z" fill="#000" transform="scale(0.5833333333333334) translate(5.833333333333334, 94.97619047619047)"></path></svg>