<svg width="24" height="24" fill="none" xmlns="http://www.w3.org/2000/svg"><path d="M11.748 3c-1.198 0-2.06.825-2.378 1.88a3.843 3.843 0 00-1.112.595L19.273 16.36a.92.92 0 00.233-.638c0-.816-.81-1.547-1.535-2.253-.551-.553-.69-1.701-.767-2.67-.077-3.045-.922-5.154-3.077-5.92C13.817 3.825 12.955 3 11.748 3zm7.171 16.158a.652.652 0 00.897 0 .633.633 0 000-.893L5.112 3.774a.646.646 0 00-.905 0 .63.63 0 000 .884l14.712 14.5zM5.267 16.751h9.817l-8.516-8.41c-.163.731-.25 1.547-.275 2.457-.078.97-.216 2.118-.767 2.67C4.81 14.176 4 14.907 4 15.723c0 .621.474 1.03 1.267 1.03zM11.748 20c1.405 0 2.431-1.003 2.543-2.143H9.214c.113 1.14 1.13 2.143 2.534 2.143z" fill="#000" fill-opacity=".56"/></svg>